<svg width="200" height="200" viewBox="0 0 100 100" xmlns="http://www.w3.org/2000/svg">
  <rect width="100" height="100" fill="#f4f1ea"/>
  <g transform="translate(5 5)" stroke="#222" stroke-width="1.5">
    <rect x="0" y="0" width="25" height="18" rx="4" fill="#e76f51"/>
    <rect x="30" y="0" width="25" height="18" rx="8" ry="3" fill="#f4a261"/>
    <circle cx="72" cy="9" r="9" fill="#2a9d8f" fill-opacity="0.6"/>
    <ellipse cx="12" cy="35" rx="12" ry="7" fill="#264653" stroke="none"/>
    <line x1="30" y1="28" x2="55" y2="42" stroke-linecap="round" stroke-width="3"/>
    <polyline points="62,42 70,28 78,42 86,28" fill="none" stroke-linejoin="round"/>
    <polygon points="12,50 24,72 0,72" fill="#e9c46a" opacity="0.8"/>
    <path d="M30 50 h20 a5 5 0 0 1 5 5 v10 q0 7 -7 7 H35 c-3 0 -5 -2 -5 -5z" fill="#8ab17d" fill-rule="evenodd"/>
    <path d="M62 50 l12 0 l0 12 l-12 0 z M65 53 l6 0 l0 6 l-6 0 z" fill="#b56576" fill-rule="evenodd" stroke="none"/>
    <g transform="rotate(20 80 80) scale(1.1)" opacity="0.7">
      <rect x="66" y="66" width="16" height="12" fill="#6d597a" stroke-dasharray="3 2"/>
    </g>
  </g>
</svg>
